#!OML:ASF X:\für Bonn\!DataBase\2005_08_10_Bjorn_Final\c3d\bjorn.ASF
:FULLY-SPECIFIED
:DEGREES
151
root -2.40147 11.2077 19.5816 -367.434 -194.774 348.887
lowerback 50.7618 -15.8888 9.68255
upperback 21.7307 -2.13555 8.35771
thorax 3.93913 3.105 5.88396
lowerneck 3.51256 -11.5932 7.77484
upperneck 5.24017 -14.9954 0.633218
head 0.540379 -7.24865 -0.878849
rclavicle -9.54166e-014 1.47101e-014
rhumerus -167.833 -139.806 121.71
rradius 21.2464
rwrist 2.68758
rhand -14.7259 4.28241
rfingers 7.12502
rthumb 11.4291 -25.3861
lclavicle -9.54166e-014 1.47101e-014
lhumerus -346.834 -22.0546 -301.041
lradius 48.883
lwrist -3.89948
lhand -15.912 -9.90838
lfingers 7.12502
lthumb 10.285 19.8201
rfemur -82.0645 -22.1155 -1.63798
rtibia 114.537
rfoot -22.6714 25.3086
rtoes -21.7505
lfemur -72.9172 12.2991 -25.3375
ltibia 118.346
lfoot -32.4968 14.2859
ltoes -21.3236
152
root -2.36382 11.0668 19.622 -368.093 -194.353 348.846
lowerback 50.8581 -16.0348 9.59233
upperback 21.7765 -2.22468 8.32952
thorax 3.98527 3.1075 5.93639
lowerneck 3.52063 -11.6033 7.87948
upperneck 5.25445 -15.0055 0.720512
head 0.542987 -7.25041 -0.867827
rclavicle 1.7175e-013 1.93219e-013
rhumerus -168.256 -138.881 121.583
rradius 21.147
rwrist 2.722
rhand -14.0834 4.00214
rfingers 7.12502
rthumb 12.0487 -25.631
lclavicle 1.7175e-013 1.93219e-013
lhumerus -346.557 -22.3161 -301.599
lradius 48.7839
lwrist -2.98838
lhand -15.9735 -10.2541
lfingers 7.12502
lthumb 10.2257 19.4773
rfemur -82.3057 -22.8295 -1.69975
rtibia 115.594
rfoot -22.8555 25.5401
rtoes -21.763
lfemur -73.0837 12.4032 -25.0967
ltibia 119.246
lfoot -32.4562 13.9643
ltoes -21.3245
153
root -2.32464 10.923 19.6622 -368.791 -193.929 348.807
lowerback 50.9901 -16.1881 9.4595
upperback 21.8318 -2.32832 8.28662
thorax 4.03888 3.10417 5.99797
lowerneck 3.52171 -11.6048 7.99037
upperneck 5.28795 -15.0033 0.771534
head 0.549654 -7.245 -0.869889
rclavicle 3.18055e-014 1.03766e-013
rhumerus -168.632 -137.919 121.412
rradius 20.9779
rwrist 2.93067
rhand -13.459 4.06209
rfingers 7.12502
rthumb 12.6507 -25.5348
lclavicle 3.18055e-014 1.03766e-013
lhumerus -346.404 -22.4499 -302.098
lradius 48.7728
lwrist -2.07956
lhand -16.2864 -10.7673
lfingers 7.12502
lthumb 9.92385 18.9788
rfemur -82.5276 -23.5953 -1.76142
rtibia 116.646
rfoot -22.9769 25.8582
rtoes -21.6359
lfemur -73.2168 12.5462 -24.8388
ltibia 120.139
lfoot -32.3784 13.6152
ltoes -21.2713
154
root -2.28402 10.7777 19.7032 -369.532 -193.483 348.73
lowerback 51.1443 -16.327 9.27942
upperback 21.8808 -2.43548 8.22888
thorax 4.08176 3.09699 6.0638
lowerneck 3.53972 -11.6076 8.15362
upperneck 5.29943 -14.9984 0.787387
head 0.540215 -7.23833 -0.887841
rclavicle 4.13472e-014 4.6118e-014
rhumerus -169.032 -136.937 121.217
rradius 20.813
rwrist 3.11713
rhand -13.0632 4.28095
rfingers 7.12502
rthumb 13.0323 -25.2919
lclavicle 4.13472e-014 4.6118e-014
lhumerus -346.333 -22.4799 -302.49
lradius 48.7707
lwrist -1.17162
lhand -16.7258 -11.5471
lfingers 7.12502
lthumb 9.49988 18.2187
rfemur -82.722 -24.4506 -1.87386
rtibia 117.7
rfoot -23.1225 26.2052
rtoes -21.4955
lfemur -73.312 12.6662 -24.6076
ltibia 121.018
lfoot -32.2901 13.3072
ltoes -21.4061
155
root -2.24316 10.6313 19.7443 -370.275 -193.039 348.654
lowerback 51.2637 -16.4732 9.0451
upperback 21.9756 -2.57695 8.15543
thorax 4.1814 3.07499 6.14923
lowerneck 3.5341 -11.5711 8.28621
upperneck 5.30701 -14.9456 0.785091
head 0.535479 -7.20895 -0.909535
rclavicle -1.39944e-013 -1.63003e-014
rhumerus -169.321 -135.997 120.916
rradius 20.6468
rwrist 3.31234
rhand -12.9744 4.55748
rfingers 7.12502
rthumb 13.1179 -25.0099
lclavicle -1.39944e-013 -1.63003e-014
lhumerus -346.309 -22.27 -302.76
lradius 48.7087
lwrist -0.275358
lhand -17.1567 -12.3516
lfingers 7.12502
lthumb 9.08415 17.4328
rfemur -82.9404 -25.3661 -1.97465
rtibia 118.755
rfoot -23.2233 26.6149
rtoes -21.3221
lfemur -73.4192 12.8081 -24.3693
ltibia 121.892
lfoot -32.1852 12.9265
ltoes -21.3583
156
root -2.1994 10.4825 19.7846 -371.054 -192.566 348.583
lowerback 51.4166 -16.6192 8.8005
upperback 22.0528 -2.71398 8.08293
thorax 4.2583 3.05508 6.23852
lowerneck 3.50297 -11.5514 8.45834
upperneck 5.37672 -14.9134 0.723528
head 0.54604 -7.18598 -0.958001
rclavicle 9.54166e-015 1.10524e-013
rhumerus -169.713 -135.101 120.675
rradius 20.5351
rwrist 3.49684
rhand -13.005 4.85435
rfingers 7.12502
rthumb 13.0883 -24.715
lclavicle 9.54166e-015 1.10524e-013
lhumerus -346.382 -21.8615 -302.834
lradius 48.6336
lwrist 0.642942
lhand -17.3373 -13.0212
lfingers 7.12502
lthumb 8.90983 16.7707
rfemur -83.1316 -26.3827 -2.07934
rtibia 119.823
rfoot -23.3794 27.0269
rtoes -21.1922
lfemur -73.4943 12.9807 -24.1084
ltibia 122.765
lfoot -32.0746 12.5386
ltoes -21.4836
157
root -2.15429 10.3326 19.8253 -371.874 -192.115 348.552
lowerback 51.5991 -16.7727 8.54121
upperback 22.1592 -2.84486 7.99709
thorax 4.36639 3.04564 6.32174
lowerneck 3.50998 -11.5231 8.56807
upperneck 5.38683 -14.8697 0.709138
head 0.540547 -7.16108 -0.97917
rclavicle 7.95139e-014 8.0309e-014
rhumerus -170.17 -134.391 120.48
rradius 20.4718
rwrist 3.55157
rhand -13.2034 5.17545
rfingers 7.12502
rthumb 12.8972 -24.406
lclavicle 7.95139e-014 8.0309e-014
lhumerus -346.523 -21.1622 -302.692
lradius 48.513
lwrist 1.48797
lhand -17.3053 -13.6254
lfingers 7.12502
lthumb 8.94076 16.1652
rfemur -83.2897 -27.4261 -2.14332
rtibia 120.892
rfoot -23.5722 27.4719
rtoes -21.1927
lfemur -73.5192 13.2206 -23.7712
ltibia 123.634
lfoot -31.9485 12.1054
ltoes -21.636
